<?xml version="1.0" encoding="UTF-8"?><svg id="_圖層_1" xmlns="http://www.w3.org/2000/svg" viewBox="0 0 33.88 34.34"><defs><style>.cls-1{fill:none;}.cls-1,.cls-2,.cls-3{stroke-width:0px;}.cls-2{fill:#ea6819;}.cls-3{fill:#323788;}</style></defs><path class="cls-3" d="M.59,28.73s0-.06.03-.07c.02-.02.04-.03.07-.03h1.5c.13,0,.26.02.37.07.12.05.22.12.31.2.09.09.16.19.21.3.05.12.08.24.08.37,0,.11-.02.21-.05.31-.04.1-.09.18-.15.26.11.1.19.21.26.35.06.13.09.28.09.43,0,.13-.03.26-.08.38-.05.12-.12.23-.21.32-.09.09-.19.16-.31.22-.12.05-.25.08-.38.08H.69s-.05,0-.07-.02c-.02-.02-.03-.04-.03-.07v-3.09ZM2.29,29.6s0-.09-.02-.12c-.02-.04-.04-.07-.07-.1-.03-.03-.07-.05-.11-.07-.04-.02-.09-.03-.14-.03h-.48v.64h.48c.05,0,.1,0,.14-.02.04-.02.08-.04.11-.07.03-.03.05-.06.07-.1.02-.04.03-.08.03-.13ZM2.41,30.89s0-.09-.03-.13c-.02-.04-.04-.08-.07-.12-.03-.03-.07-.06-.11-.09-.04-.02-.09-.03-.14-.03h-.6v.74h.6s.1-.01.14-.03c.04-.02.08-.05.11-.08.03-.03.06-.07.07-.12.02-.04.03-.09.03-.14Z"/><path class="cls-3" d="M3.9,28.72s0-.05.02-.07c.02-.02.04-.03.07-.03h.66s.05,0,.07.03c.03.02.04.04.04.07v3.1c0,.06-.04.1-.11.1h-.66c-.07,0-.1-.03-.1-.1v-3.1Z"/><path class="cls-3" d="M7.72,29.55c-.08-.05-.16-.09-.25-.12-.09-.03-.18-.04-.28-.04-.12,0-.24.02-.34.07-.1.05-.19.11-.27.19-.07.08-.13.17-.17.28-.04.11-.06.22-.06.34s.02.23.06.34c.04.11.1.2.17.28s.16.14.27.19c.1.05.22.07.34.07.05,0,.1,0,.16-.01.05,0,.11-.02.17-.03v-.58s0-.05.02-.07c.02-.02.04-.03.07-.03h.61s.05,0,.07.03c.03.02.04.04.04.07v1.07s-.02.07-.07.1c-.07.05-.15.09-.23.12s-.18.06-.27.08c-.09.02-.19.04-.28.05-.1.01-.19.02-.28.02-.16,0-.31-.02-.46-.06-.15-.04-.28-.1-.41-.17-.13-.07-.24-.16-.35-.26-.1-.1-.19-.22-.27-.34-.08-.12-.13-.26-.17-.4-.04-.14-.06-.29-.06-.45s.02-.31.06-.45c.04-.14.1-.28.17-.41.08-.13.17-.24.27-.34.1-.1.22-.19.35-.26.13-.07.27-.13.41-.17.15-.04.3-.06.46-.06.18,0,.35.02.51.07.16.05.31.12.45.21.03.01.05.03.06.06.01.02.01.05,0,.08l-.37.52s-.04.04-.06.05c-.02,0-.05,0-.08-.02Z"/><path class="cls-2" d="M11.66,28.86s.04.03.06.06c.01.02,0,.05,0,.08l-.38.53s-.03.04-.05.04c-.02,0-.04,0-.07-.02-.07-.05-.15-.1-.24-.13-.09-.03-.18-.04-.28-.04-.12,0-.24.02-.34.07-.1.05-.19.11-.27.19-.08.08-.13.17-.18.28-.04.11-.06.22-.06.34s.02.23.06.34c.04.11.1.2.18.28.08.08.16.14.27.19.1.05.22.07.34.07.1,0,.19-.02.28-.05.09-.03.17-.07.25-.13.03-.02.05-.02.07-.02s.04.02.05.04l.39.55s.02.06,0,.08c-.01.02-.03.04-.06.06-.14.09-.29.17-.46.22-.16.05-.33.08-.52.08-.16,0-.31-.02-.46-.06-.15-.04-.28-.1-.41-.17-.13-.07-.24-.16-.35-.26-.1-.1-.19-.22-.27-.34-.08-.12-.13-.26-.17-.4-.04-.14-.06-.29-.06-.45s.02-.31.06-.45c.04-.14.1-.28.17-.41.08-.13.17-.24.27-.34.1-.1.22-.19.35-.26.13-.07.27-.13.41-.17.15-.04.3-.06.46-.06.18,0,.35.02.51.07.16.05.31.12.45.21Z"/><path class="cls-2" d="M12.4,28.73s0-.06.03-.07c.02-.02.04-.03.07-.03h2.24s.06,0,.08.03c.02.02.03.04.03.08v.55s0,.05-.03.07-.04.03-.08.03h-1.46v.55h1.13s.05,0,.07.02c.02.01.03.04.03.07v.48s0,.04-.02.06c-.02.02-.04.03-.07.03h-1.13v.57h1.52c.07,0,.1.03.1.1v.56s0,.03-.02.04c0,.04-.04.06-.09.06h-2.28s-.05,0-.07-.02c-.02-.02-.03-.04-.03-.07v-3.09Z"/><path class="cls-2" d="M15.48,28.72s0-.05.03-.07c.02-.02.04-.03.07-.03h.67s.05,0,.07.03c.02.02.03.04.03.07v2.41h1.24s.05,0,.07.03c.02.02.03.04.03.07v.58s0,.05-.03.07c-.02.02-.04.03-.07.03h-2.01c-.07,0-.1-.03-.1-.1v-3.1Z"/><path class="cls-2" d="M18.25,28.72s0-.05.03-.07c.02-.02.04-.03.07-.03h.67s.05,0,.07.03c.02.02.03.04.03.07v2.41h1.24s.05,0,.07.03c.02.02.03.04.03.07v.58s0,.05-.03.07c-.02.02-.04.03-.07.03h-2.01c-.07,0-.1-.03-.1-.1v-3.1Z"/><path class="cls-2" d="M21.1,28.73s0-.06.03-.07c.02-.02.04-.03.07-.03h2.24s.06,0,.08.03c.02.02.03.04.03.08v.55s0,.05-.03.07c-.02.02-.04.03-.08.03h-1.46v.55h1.13s.05,0,.07.02c.02.01.03.04.03.07v.48s0,.04-.02.06c-.02.02-.04.03-.07.03h-1.13v.57h1.52c.07,0,.1.03.1.1v.56s0,.03-.02.04c0,.04-.04.06-.09.06h-2.28s-.05,0-.07-.02c-.02-.02-.03-.04-.03-.07v-3.09Z"/><path class="cls-2" d="M24.26,28.72s0-.05.02-.07c.02-.02.04-.03.07-.03h.74s.04,0,.07.02c.02.01.04.03.06.05.19.3.38.6.57.9.19.29.38.59.57.9v-1.78s.02-.05.04-.06c.02-.01.04-.02.06-.02h.64s.06,0,.08.03c.02.02.03.04.03.07v3.11s0,.05-.03.07c-.02.01-.04.02-.07.02h-.72s-.04,0-.05-.02c-.02-.01-.03-.03-.05-.05-.2-.33-.4-.65-.59-.96-.2-.32-.39-.64-.6-.96v1.9s0,.06-.02.07c-.02.02-.04.02-.08.02h-.64s-.06,0-.08-.03c-.02-.02-.02-.04-.02-.07v-3.1Z"/><path class="cls-2" d="M30.62,28.86s.04.03.06.06c.01.02,0,.05,0,.08l-.38.53s-.03.04-.05.04c-.02,0-.04,0-.07-.02-.07-.05-.15-.1-.24-.13-.09-.03-.18-.04-.28-.04-.12,0-.24.02-.34.07-.1.05-.19.11-.27.19-.08.08-.13.17-.18.28-.04.11-.06.22-.06.34s.02.23.06.34c.04.11.1.2.18.28.08.08.16.14.27.19.1.05.22.07.34.07.1,0,.19-.02.28-.05.09-.03.17-.07.25-.13.03-.02.05-.02.07-.02s.04.02.05.04l.39.55s.02.06,0,.08c-.01.02-.03.04-.06.06-.14.09-.29.17-.46.22-.16.05-.33.08-.52.08-.16,0-.31-.02-.46-.06-.15-.04-.28-.1-.41-.17-.13-.07-.24-.16-.35-.26-.1-.1-.19-.22-.27-.34-.08-.12-.13-.26-.17-.4-.04-.14-.06-.29-.06-.45s.02-.31.06-.45c.04-.14.1-.28.17-.41.08-.13.17-.24.27-.34.1-.1.22-.19.35-.26.13-.07.27-.13.41-.17.15-.04.3-.06.46-.06.18,0,.35.02.51.07.16.05.31.12.45.21Z"/><path class="cls-2" d="M31.35,28.73s0-.06.03-.07c.02-.02.04-.03.07-.03h2.24s.06,0,.08.03c.02.02.03.04.03.08v.55s0,.05-.03.07-.04.03-.08.03h-1.46v.55h1.13s.05,0,.07.02c.02.01.03.04.03.07v.48s0,.04-.02.06c-.02.02-.04.03-.07.03h-1.13v.57h1.52c.07,0,.1.03.1.1v.56s0,.03-.02.04c0,.04-.04.06-.09.06h-2.28s-.05,0-.07-.02c-.02-.02-.03-.04-.03-.07v-3.09Z"/><path class="cls-3" d="M.77,33.09s0-.02.01-.03c0,0,.02-.01.03-.01h.3s.04.01.04.03l.24.78.24-.78s.02-.03.04-.03h.3s.02,0,.03.01c0,0,.01.02.01.03.02.2.04.4.06.6.02.2.04.4.06.6h0s-.01.04-.04.04h-.25s-.04-.01-.04-.04l-.08-.66-.2.66s0,.01-.01.02c0,0-.01.01-.02.01h-.23s-.01,0-.02-.01c0,0-.01-.01-.01-.02l-.2-.66-.08.66s-.02.04-.04.04h-.25s-.04-.01-.04-.04l.12-1.19Z"/><path class="cls-3" d="M5.51,33.09s0,0,0-.01c0,0,0,0,.01-.01s0,0,.01,0c0,0,.01,0,.01,0h.22s.02,0,.03,0c0,0,.01.01.02.02l.02.05.46,1.16s0,.02,0,.03c0,0-.02.01-.03.01h-.25s-.02,0-.03,0c0,0-.01-.01-.02-.02-.01-.03-.02-.06-.03-.09-.01-.03-.02-.06-.03-.09h-.46s-.02.06-.03.09c-.01.03-.02.06-.03.09,0,.02-.02.03-.04.03h-.26s-.02,0-.03,0c0,0,0-.01,0-.03l.47-1.2ZM5.67,33.45s-.02.06-.03.09c-.01.03-.02.07-.03.1-.01.03-.02.07-.03.1-.01.03-.02.06-.03.09h.27l-.13-.39Z"/><path class="cls-3" d="M9.25,33.09s0-.02,0-.03c0,0,.02-.01.03-.01h.56c.06,0,.12.01.17.03.05.02.1.05.14.09.04.04.07.08.09.13.02.05.03.1.03.16,0,.04,0,.08-.02.11-.01.03-.03.07-.04.1-.02.03-.04.06-.07.08-.03.02-.06.05-.09.06l.22.41s0,.02.02.03,0,.02,0,.03c0,0,0,.02,0,.02,0,0-.01,0-.02,0h-.3s-.02,0-.03,0c0,0-.01-.01-.02-.02l-.21-.39h-.14v.39s-.01.04-.04.04h-.26s-.02,0-.03,0c0,0-.01-.02-.01-.03v-1.19ZM9.93,33.47s0-.03,0-.05c0-.02-.02-.03-.03-.05-.01-.01-.03-.03-.04-.04-.02,0-.03-.02-.05-.02-.02,0-.03,0-.05,0-.01,0-.03,0-.05,0h-.12v.31h.16s.02,0,.03,0c0,0,.02,0,.03,0,.02,0,.04,0,.05-.02.02,0,.03-.02.04-.03.01-.01.02-.03.03-.05,0-.02,0-.04,0-.05Z"/><path class="cls-3" d="M13.24,33.09s0-.02,0-.03c0,0,.02-.01.03-.01h.26s.02,0,.03.01c0,0,.01.02.01.03v.47c.06-.08.13-.16.19-.24.06-.08.12-.16.19-.24,0,0,.01-.02.02-.02.01,0,.02,0,.03,0h.33s.02,0,.02.01c0,0,0,.01,0,.02l-.41.53.45.67s0,.02,0,.02c0,0,0,.01-.02.01h-.33s-.02,0-.03,0c0,0-.02-.01-.02-.02-.03-.04-.06-.08-.08-.12-.03-.04-.05-.08-.07-.11s-.05-.08-.07-.11c-.02-.04-.05-.08-.08-.12l-.11.12v.33s-.01.04-.04.04h-.26s-.04-.01-.04-.04v-1.19Z"/><path class="cls-3" d="M17.35,33.09s0-.02,0-.03c0,0,.02-.01.03-.01h.86s.02,0,.03.01c0,0,.01.02.01.03v.21s0,.02-.01.03c0,0-.02.01-.03.01h-.56v.21h.43s.02,0,.03,0c0,0,.01.01.01.03v.18s0,.02,0,.02c0,0-.02.01-.03.01h-.44v.22h.58s.04.01.04.04v.21s0,.01,0,.02c0,.02-.01.02-.04.02h-.88s-.02,0-.03,0c0,0-.01-.02-.01-.03v-1.19Z"/><path class="cls-3" d="M21.23,33.09s0-.02.01-.03c0,0,.02-.01.03-.01h.94s.02,0,.03,0c0,0,.01.02.01.03v.21s0,.02-.01.03c0,0-.02.01-.03.01h-.3v.94s0,.02-.01.03c0,0-.02.01-.03.01h-.25s-.02,0-.03-.01c0,0-.01-.02-.01-.03v-.94h-.3s-.02,0-.03-.01-.01-.02-.01-.03v-.21Z"/><path class="cls-3" d="M25.24,33.09s0-.02,0-.03c0,0,.02-.01.03-.01h.26s.02,0,.03.01c0,0,.01.02.01.03v1.19s-.01.04-.04.04h-.26s-.04-.01-.04-.04v-1.19Z"/><path class="cls-3" d="M28.63,33.09s0-.02,0-.03c0,0,.02-.01.03-.01h.28s.02,0,.03,0c0,0,.02.01.02.02.07.12.15.23.22.35.07.11.15.23.22.35v-.68s0-.02.01-.02c0,0,.02,0,.02,0h.25s.02,0,.03,0c0,0,.01.02.01.03v1.2s0,.02-.01.03c0,0-.02,0-.03,0h-.28s-.01,0-.02,0c0,0-.01-.01-.02-.02-.08-.13-.15-.25-.23-.37-.08-.12-.15-.25-.23-.37v.73s0,.02,0,.03c0,0-.02,0-.03,0h-.25s-.02,0-.03-.01c0,0,0-.02,0-.03v-1.19Z"/><path class="cls-3" d="M33.64,33.41s-.06-.04-.09-.05c-.03-.01-.07-.02-.11-.02-.05,0-.09,0-.13.03-.04.02-.07.04-.1.07-.03.03-.05.07-.07.11-.02.04-.02.09-.02.13s0,.09.02.13c.02.04.04.08.07.11.03.03.06.05.1.07.04.02.08.03.13.03.02,0,.04,0,.06,0,.02,0,.04,0,.06-.01v-.22s0-.02,0-.03c0,0,.02-.01.03-.01h.24s.02,0,.03.01c0,0,.01.02.01.03v.41s0,.03-.03.04c-.03.02-.06.03-.09.05-.03.01-.07.02-.1.03-.04,0-.07.01-.11.02-.04,0-.07,0-.11,0-.06,0-.12,0-.18-.02-.06-.02-.11-.04-.16-.07s-.09-.06-.13-.1c-.04-.04-.07-.08-.1-.13-.03-.05-.05-.1-.07-.16-.02-.06-.02-.11-.02-.17s0-.12.02-.17c.02-.06.04-.11.07-.16.03-.05.06-.09.1-.13.04-.04.09-.07.13-.1s.1-.05.16-.07c.06-.02.12-.02.18-.02.07,0,.14,0,.2.03.06.02.12.05.17.08,0,0,.02.01.02.02,0,0,0,.02,0,.03l-.14.2s-.02.02-.02.02c0,0-.02,0-.03,0Z"/><path class="cls-1" d="M6.13,8.44s0,0,0,0c-.38-.2-.75-.39-1.11-.57.36.18.74.37,1.11.57Z"/><path class="cls-1" d="M6.37,7.83c-1.12-.23-2.58-.67-4.5-1.43,1.92.75,3.39,1.2,4.5,1.43,0,0,0,0,0,0Z"/><path class="cls-3" d="M19.73,17.56c.22-.11.41-.25.57-.43.16-.18.29-.38.38-.61.09-.23.13-.46.13-.71,0-.23-.04-.46-.13-.68-.09-.23-.21-.43-.37-.61-.16-.18-.35-.33-.57-.44-.22-.11-.46-.17-.72-.17h-3.07v3.81h3.07c.26,0,.49-.05.71-.16Z"/><path class="cls-3" d="M19.14,10.72c.22-.08.41-.19.56-.34.16-.15.28-.32.37-.52.09-.2.13-.42.13-.67,0-.23-.04-.44-.13-.64-.09-.2-.21-.37-.36-.52-.16-.15-.34-.27-.56-.36-.22-.09-.45-.13-.71-.13h-2.49v3.31h2.45c.26,0,.51-.04.73-.12Z"/><path class="cls-3" d="M29.15,9.29c-.28-1.01-.69-1.95-1.21-2.82-.53-.87-1.15-1.67-1.88-2.39-.73-.72-1.54-1.33-2.44-1.85-.89-.52-1.85-.91-2.88-1.19s-2.09-.42-3.21-.42c-.01,0-.03,0-.04,0-.01,0-.03,0-.04,0-1.11,0-2.18.14-3.21.43-1.81.51-2.98-.15-3.49-.31-.82,2.39-4.52-.32-4.52-.32,0,0,2.07,3.38,1.42,5.09-.02.03-.04.06-.06.11-1.11,2.16-6.59.42-6.59.42l.87.37s0,0,0,0c1.92.75,3.39,1.2,4.5,1.43,0,0,0,0,0,0,4.32.88,3.41-1.46,3.41-1.46,0,0,1.54.97,1.68-.11v-.91h0c0-.66-1.29-1.84-1.29-1.84,0,0,.88.66,1.8.66s.03-.47.03-.47c0,0,1.22.47,2.06.47h5.61c.68,0,1.32.13,1.93.38.6.25,1.13.6,1.58,1.05.45.44.81.97,1.07,1.56.26.6.39,1.24.39,1.92,0,.57-.09,1.1-.27,1.59-.18.49-.44.93-.77,1.32.56.5,1,1.1,1.32,1.79.32.69.49,1.43.49,2.2,0,.69-.14,1.35-.41,1.97-.27.62-.64,1.16-1.1,1.63-.46.47-1,.84-1.61,1.11-.62.27-1.26.41-1.94.41h-5c-1.45.11-2.13,1-2.13,1,0,0,.02-.66-.72-.86s-1.58.37-1.58.37c0,0,.46-.41.53-1.87v-6.66c-.18-1.56-2.82-3.31-5.33-4.64,0,0,0,0,0,0-.38-.2-.75-.39-1.11-.57,0,0,0,0,0,0-.12-.06-.24-.12-.36-.17,0,0-.02,0-.02,0,.49.32.96.61,1.44.89-.09.25-.17.5-.24.76-.28,1.01-.43,2.06-.43,3.15s.14,2.15.43,3.15c.28,1.01.69,1.95,1.21,2.82.35.58.75,1.13,1.19,1.64,1.24,1.52.88,2.8.88,2.8,0,0,1.04-1.03,1.88-.25.93.86-.52,4.04-.52,4.04,0,0,1.62-2.91,2.95-2.93,1.4-.02,1.1,1.74,1.1,1.74,0,0,.67-1.1,2.5-1.17,1.08-.04,1.71.37,1.71.37,0,0,.38-.38,1.23-.63.26-.05.52-.12.78-.19,1.02-.28,1.98-.68,2.88-1.19.89-.51,1.7-1.13,2.44-1.85.73-.72,1.36-1.53,1.88-2.41.53-.88.93-1.83,1.21-2.83.28-1.01.43-2.06.43-3.15s-.14-2.15-.43-3.15Z"/><path class="cls-3" d="M0,7.68s.3.11.69.2c.38.09.7.14.7.14,0,0-.3-.11-.69-.2s-.7-.14-.7-.14Z"/><path class="cls-3" d="M10.78,24.97s-.18.26-.36.61c-.18.35-.3.64-.3.64,0,0,.18-.26.36-.61.18-.35.3-.64.3-.64Z"/><path class="cls-3" d="M1.24,7.07s.82.45,1.88.9c1.06.45,1.95.73,1.95.73,0,0-.82-.45-1.88-.9-1.06-.45-1.95-.73-1.95-.73Z"/><path class="cls-3" d="M6.76.43c.29.19.58.27.58.27,0,0-.18-.23-.47-.43-.29-.19-.58-.27-.58-.27,0,0,.18.23.47.43Z"/><path class="cls-3" d="M10.83,26.79c-.12.23-.16.44-.16.44,0,0,.16-.15.29-.38.12-.23.16-.44.16-.44,0,0-.16.15-.29.38Z"/><path class="cls-3" d="M5.44,6.28s-.36-.22-.83-.38c-.48-.16-.9-.2-.9-.2,0,0,.36.22.83.38.48.16.9.2.9.2Z"/><path class="cls-1" d="M24.94,13.78c-.32-.69-.77-1.29-1.32-1.79.33-.39.59-.83.77-1.32.18-.49.27-1.02.27-1.59,0-.68-.13-1.32-.39-1.92-.26-.6-.62-1.12-1.07-1.56-.45-.44-.98-.79-1.58-1.05-.6-.25-1.25-.38-1.93-.38h-5.61c-.84,0-2.06-.47-2.06-.47,0,0,.89.47-.03.47s-1.8-.66-1.8-.66c0,0,1.29,1.18,1.29,1.84h0v.91c-.14,1.09-1.68.11-1.68.11,0,0,1.46,3.77-8.15-.06.99.46,9.49,3.92,9.83,6.77v6.66c-.08,1.47-.53,1.87-.53,1.87,0,0,.84-.57,1.58-.37s.72.86.72.86c0,0,.68-.89,2.13-1h5c.68,0,1.33-.14,1.94-.41.61-.27,1.15-.64,1.61-1.11.46-.47.83-1.01,1.1-1.63.27-.62.41-1.28.41-1.97,0-.78-.16-1.51-.49-2.2ZM15.96,7.53h2.49c.26,0,.49.04.71.13.22.09.4.21.56.36.16.15.28.33.36.52.09.2.13.41.13.64,0,.24-.04.47-.13.67-.09.2-.21.38-.37.52-.16.15-.34.26-.56.34-.22.08-.46.12-.73.12h-2.45v-3.31ZM20.68,16.52c-.09.23-.22.43-.38.61-.16.18-.35.32-.57.43-.22.11-.45.16-.71.16h-3.07v-3.81h3.07c.26,0,.49.06.72.17.22.11.41.26.57.44.16.18.28.38.37.61.09.23.13.46.13.68,0,.24-.04.48-.13.71Z"/></svg>