<?xml version="1.0" encoding="UTF-8"?><svg id="_圖層_1" xmlns="http://www.w3.org/2000/svg" viewBox="0 0 92.64 92.78"><defs><style>.cls-1{fill:#fff;stroke-width:0px;}</style></defs><path class="cls-1" d="M62.06,58.4c2.03,0,3.99,0,5.95,0,1.61,0,3.23.03,4.84-.03.32-.01.85-.32.9-.57,1-4.68,1.93-9.38,2.91-14.22h-14.56c-.05-.35-.13-.58-.12-.81.05-2.24,0-4.5.19-6.73.37-4.31,3.15-6.81,7.54-6.9,2-.04,4-.04,6,0,.73.01.99-.26.98-.98-.02-4.32-.02-8.64,0-12.96,0-.75-.29-.96-1-.95-3.97.03-7.94-.06-11.9.04-7.18.18-13.13,5.01-15.42,12.38-.86,2.77-1.2,5.61-1.23,8.5-.03,2.73,0,5.47,0,8.35h-11.58c-.02.52-.05.89-.05,1.27,0,4.11.03,8.22-.02,12.32-.01.99.23,1.34,1.27,1.32,3.12-.06,6.25,0,9.37-.04.78,0,1.02.23,1.02,1.02-.02,10.75-.02,21.49,0,32.24,0,.76-.18,1.04-1,1.04-7.02-.04-14.07.32-21.06-.12-10.36-.65-17.89-6-22.54-15.28C.79,73.75,0,69.96,0,66,.02,52.9.05,39.8,0,26.71-.04,14.27,9,2.53,22.66.31c1.48-.24,3-.28,4.51-.28C39.95.02,52.73.12,65.51,0c13.06-.12,24.07,9.17,26.53,21.23.31,1.54.55,3.12.56,4.68.04,13.52.08,27.04.01,40.56-.06,12.08-8.94,22.95-20.75,25.52-1.4.3-2.83.54-4.25.62-1.81.11-3.64.03-5.53.03v-34.23Z"/></svg>