<?xml version="1.0" encoding="UTF-8"?><svg id="_圖層_1" xmlns="http://www.w3.org/2000/svg" viewBox="0 0 310.89 61.49"><defs><style>.cls-1{fill:#fff;stroke-width:0px;}</style></defs><path class="cls-1" d="M12.09,38c1.27,1.12,1.9,2.6,1.9,4.47s-.72,3.57-2.15,5.08c-.7.73-2.18,1.87-4.48,3.45-3.08,2.09-4.78,3.96-5.11,5.62h11.76v1.69H0c0-1.81.7-3.54,2.15-5.14.88-1,2.39-2.24,4.54-3.72,1.87-1.33,3.08-2.3,3.66-2.87,1.18-1.27,1.78-2.66,1.78-4.14s-.45-2.54-1.33-3.33c-.88-.79-2.06-1.18-3.54-1.18-1.57,0-2.81.51-3.72,1.57-.97,1.06-1.45,2.6-1.45,4.6H.21c0-2.42.67-4.32,2-5.71,1.27-1.39,2.96-2.09,5.08-2.09,1.94,0,3.54.54,4.81,1.69Z"/><path class="cls-1" d="M30.96,39.87c1.03,1.9,1.57,4.44,1.57,7.65s-.54,5.71-1.57,7.65c-1.27,2.36-3.2,3.57-5.81,3.57s-4.53-1.21-5.81-3.57c-1.06-1.94-1.57-4.47-1.57-7.65s.51-5.74,1.57-7.65c1.27-2.39,3.21-3.57,5.81-3.57s4.54,1.18,5.81,3.57ZM20.65,41.14c-.67,1.57-1,3.72-1,6.38s.33,4.78,1,6.38c.91,2.12,2.42,3.2,4.51,3.2s3.57-1.09,4.51-3.2c.67-1.6,1.03-3.72,1.03-6.38s-.36-4.81-1.03-6.38c-.94-2.15-2.45-3.21-4.51-3.21s-3.6,1.06-4.51,3.21Z"/><path class="cls-1" d="M48.38,38c1.27,1.12,1.9,2.6,1.9,4.47s-.72,3.57-2.15,5.08c-.7.73-2.18,1.87-4.48,3.45-3.08,2.09-4.78,3.96-5.11,5.62h11.76v1.69h-14.03c0-1.81.7-3.54,2.15-5.14.88-1,2.39-2.24,4.54-3.72,1.87-1.33,3.08-2.3,3.66-2.87,1.18-1.27,1.78-2.66,1.78-4.14s-.45-2.54-1.33-3.33-2.06-1.18-3.54-1.18c-1.57,0-2.81.51-3.72,1.57-.97,1.06-1.45,2.6-1.45,4.6h-1.87c0-2.42.67-4.32,2-5.71,1.27-1.39,2.96-2.09,5.08-2.09,1.94,0,3.54.54,4.81,1.69Z"/><path class="cls-1" d="M66.07,36.73v15h3.66v1.54h-3.66v5.05h-1.78v-5.05h-11.13v-1.78l11.13-14.76h1.78ZM54.82,51.73h9.46v-12.49h-.09l-9.37,12.49Z"/><path class="cls-1" d="M84.37,41.81c.27-1.84.42-3.78.45-5.78v-2.3h1.63v1.94c0,2.18-.15,4.23-.45,6.14h12.82v1.63h-12.12c2.12,7.11,6.32,12.55,12.67,16.36l-1,1.33c-6.35-3.87-10.64-9.46-12.85-16.72-1.72,7.8-5.93,13.42-12.64,16.9l-1.03-1.36c6.62-3.27,10.7-8.77,12.25-16.51h-11.64v-1.63h11.91Z"/><path class="cls-1" d="M115.06,39v-2.09h-12.09v-1.33h12.09v-2h1.63v2h12.09v1.33h-12.09v2.09h9.37v8.28h-1.27c1.69,1.69,2.99,3.14,3.9,4.38l-1.15.82c-.42-.63-.94-1.3-1.51-1.97l-3.36.18v2.93h6.56v1.42h-6.56v4.02c0,1.39-.76,2.12-2.24,2.12h-3.27l-.33-1.51c1.09.06,2.12.12,3.08.12.73,0,1.12-.36,1.12-1.09v-3.66h-18.53v-1.42h18.53v-2.84c-5.32.24-10.95.42-16.87.6l-.33-1.36c3.84-.09,7.59-.21,11.22-.33v-2.42h-9.37v-8.28h9.37ZM115.06,42.53v-2.33h-7.77v2.33h7.77ZM115.06,43.71h-7.77v2.27h7.77v-2.27ZM114.06,59.16l-1.12,1.12c-1.24-1.3-2.9-2.69-5.02-4.14l1.03-.97c2.03,1.33,3.72,2.66,5.11,3.99ZM116.69,42.53h7.77v-2.33h-7.77v2.33ZM124.46,43.71h-7.77v2.27h7.77v-2.27ZM123.65,47.92l1-.64h-7.95v2.36l8.25-.36c-.42-.45-.85-.91-1.3-1.36Z"/><path class="cls-1" d="M142.67,35.13v1.51h-1.75v24.85h-1.54v-6.08c-2.12.88-4.32,1.6-6.68,2.18l-.39-1.51c.54-.12,1.06-.24,1.54-.36v-19.08h-1.36v-1.51h10.19ZM139.37,41.57v-4.93h-4.02v4.93h4.02ZM139.37,47.98v-4.9h-4.02v4.9h4.02ZM139.37,53.9v-4.41h-4.02v5.81c1.39-.42,2.75-.88,4.02-1.39ZM150.8,47.37l-1.24.33c-.12-.57-.27-1.12-.39-1.63-2.33.45-4.48.82-6.44,1.09l-.3-1.24c1.18-.67,2.69-2.39,4.54-5.2-1.42.12-2.81.27-4.17.39l-.36-1.27c.24-.09.42-.27.57-.51,1.21-1.63,2.24-3.57,3.11-5.78l1.36.54c-1.09,2.36-2.18,4.23-3.27,5.62,1.21-.06,2.39-.18,3.6-.33.51-.85,1.03-1.75,1.57-2.66l1.3.51c-2.54,4.29-4.57,7.11-6.08,8.44,1.21-.18,2.63-.45,4.26-.76-.27-.94-.54-1.81-.85-2.66l1.18-.39c.6,1.6,1.12,3.45,1.6,5.5ZM144.97,48.85v5.2h3.08c.09-.67.15-1.33.18-2v-3.9h1.51v3.9c-.06,2.42-.54,4.35-1.51,5.81-.97,1.33-2.51,2.39-4.69,3.17l-.85-1.3c2.03-.7,3.48-1.66,4.32-2.87.27-.45.48-.94.66-1.42h-4.14v-6.59h1.42ZM159.9,47.43l-1.21.33c-.12-.63-.27-1.24-.42-1.84-2.27.36-4.38.63-6.32.85l-.3-1.27c1.03-.63,2.36-2.3,3.96-4.99-1.39.15-2.75.27-4.08.39l-.33-1.24c.21-.09.39-.27.57-.51,1-1.57,1.87-3.39,2.63-5.44l1.39.54c-.97,2.24-1.9,3.99-2.87,5.32,1.15-.12,2.3-.24,3.48-.39.42-.82.91-1.69,1.39-2.6l1.3.48c-2.24,4.2-4.02,6.95-5.38,8.25,1.21-.15,2.6-.36,4.23-.6-.27-1-.58-1.97-.91-2.87l1.18-.36c.63,1.72,1.21,3.72,1.69,5.96ZM158.6,48.91v6.83h-4.6v5.65h-1.51v-13.24h1.51v6.14h3.14v-5.38h1.45Z"/><path class="cls-1" d="M167.49,39.72v-5.99h1.6v5.99h3.39v1.6h-3.39v2.6c1.36,1.72,2.75,3.69,4.14,5.87l-.91,1.33c-1.24-2.36-2.33-4.26-3.24-5.68v15.69h-1.6v-16.45c-1.06,3.33-2.51,6.29-4.35,8.89l-.73-1.72c2.39-3.08,4.05-6.59,5.02-10.52h-4.26v-1.6h4.32ZM185.82,46.77c-.61,3.33-1.69,6.11-3.3,8.35,1.96,1.81,4.51,3.36,7.65,4.6l-.85,1.45c-3.24-1.3-5.84-2.9-7.83-4.78-2.12,2.36-4.87,3.99-8.26,4.93l-.94-1.42c3.36-.91,6.02-2.45,8.01-4.69-2.06-2.33-3.33-5.02-3.84-8.1l1.42-.42c.42,2.75,1.57,5.17,3.42,7.23,1.45-2.06,2.42-4.54,2.93-7.47l1.57.33ZM178.74,41.63c-1.39,2.93-2.99,5.47-4.87,7.62l-1.3-.91c1.84-2.06,3.45-4.54,4.78-7.38l1.39.67ZM181.13,37.76c-.57-1.51-1.21-2.9-1.91-4.11l1.66-.3c.67,1.27,1.27,2.75,1.84,4.41h6.77v1.63h-16.09v-1.63h7.71ZM189.93,48.1l-1.36.97c-1.24-2.24-2.93-4.69-5.08-7.41l1.3-.79c2.24,2.78,3.93,5.17,5.14,7.23Z"/><path class="cls-1" d="M193.74,36.61v-1.51h13.09v1.51h-1.6v10.55h2.24v1.48h-2.21v10.31c0,1.48-.76,2.24-2.27,2.24h-2.93l-.3-1.48c.94.06,1.84.12,2.72.12s1.27-.42,1.27-1.24v-9.95h-10.52v-1.48h10.49v-10.55h-9.98ZM201.33,39.12v5.44h-6.92v-5.44h6.92ZM201.42,51.15v5.65h-7.01v-5.65h7.01ZM199.97,40.24h-4.17v3.2h4.17v-3.2ZM200.03,52.3h-4.2v3.36h4.2v-3.36ZM213.58,42.93c0,1.97-.09,3.78-.24,5.41,1.39,4.9,3.75,8.77,7.08,11.64l-1.09,1.27c-2.84-2.66-4.99-5.93-6.44-9.86l-.27,1.33c-.91,3.51-2.84,6.35-5.87,8.59l-1.03-1.27c2.63-1.94,4.38-4.41,5.29-7.47.67-2.54,1-5.78,1-9.65h1.57ZM211.07,33.98c-.18,1.48-.36,2.87-.61,4.14h8.65v1.06c-.42,2.72-1,5.38-1.69,8.01l-1.54-.42c.67-2.12,1.24-4.47,1.66-7.08h-7.44c-.66,2.72-1.57,4.93-2.72,6.65l-1.3-.94c1.78-2.81,2.93-6.71,3.45-11.67l1.54.24Z"/><path class="cls-1" d="M232.15,57.83h-1.6v-1.84h-4.6v2.48h-1.63v-22.1h7.83v21.47ZM230.54,54.42v-16.48h-4.6v16.48h4.6ZM249.38,61.34h-1.51v-1.57h-11.55v1.57h-1.54v-12.97h14.6v12.97ZM248.26,35.01v10.52h-12.37v-10.52h12.37ZM247.87,53.3v-3.45h-11.55v3.45h11.55ZM247.87,58.26v-3.51h-11.55v3.51h11.55ZM246.75,39.57v-3.14h-9.31v3.14h9.31ZM246.75,40.96h-9.31v3.11h9.31v-3.11Z"/><path class="cls-1" d="M257.73,58.77c2.75-.61,5.47-1.39,8.16-2.3l.42,1.57c-3.24,1.03-6.68,1.97-10.37,2.75l-.51-1.51c.42-.21.63-.51.63-.94v-24.04h1.66v8.62h7.92v1.63h-7.92v14.21ZM270.85,60.43c-1.75,0-2.63-.91-2.63-2.72v-23.65h1.6v9.13l9.59-.54v1.6l-9.59.54v12.64c0,.91.48,1.39,1.48,1.39h4.72c.66,0,1.21-.18,1.6-.51.54-.57.91-2.42,1.06-5.53l1.54.51c-.24,3.36-.67,5.41-1.3,6.2-.57.6-1.39.91-2.48.94h-5.59Z"/><path class="cls-1" d="M292.93,38.51v-1.9h-6.2v2.81h-1.54v-4.05h11.31c-.27-.61-.57-1.12-.88-1.6l1.57-.24c.3.54.63,1.15.94,1.84h11.34v4.05h-1.51v-2.81h-6.23v1.9h5.53v1.12h-5.53v1.9h4.93v1.09h-4.93v1.87h8.68v1.24h-7.38c1.69,1.57,4.32,2.81,7.86,3.72l-.61,1.3c-1.63-.51-3.05-1.06-4.26-1.66v8.25h-17.33v-8.04c-1.24.64-2.63,1.24-4.2,1.78l-.79-1.27c3.66-1.09,6.32-2.45,8.01-4.08h-7.44v-1.24h8.65v-1.87h-4.93v-1.09h4.93v-1.9h-5.53v-1.12h5.53ZM295.07,58.62c-2.21,1.15-5.35,2.06-9.43,2.75l-.7-1.24c4.08-.67,7.2-1.51,9.31-2.57l.82,1.06ZM304.51,48.61h-14.3v1.87h14.3v-1.87ZM290.2,53.24h14.3v-1.75h-14.3v1.75ZM290.2,56.2h14.3v-1.94h-14.3v1.94ZM303.42,47.55c-.79-.57-1.42-1.18-1.96-1.81h-8.19c-.54.63-1.15,1.24-1.87,1.81h12.03ZM294.5,36.61v1.9h5.65v-1.9h-5.65ZM300.15,39.63h-5.65v1.9h5.65v-1.9ZM300.15,44.5v-1.87h-5.65v1.87h5.65ZM309.47,60.25l-.91,1.12c-2.42-1-5.47-1.9-9.19-2.75l.79-.97c3.63.79,6.74,1.66,9.31,2.6Z"/><path class="cls-1" d="M14.96.53h1.31v13.08h-1.31V.53Z"/><path class="cls-1" d="M19.06,3.94h1.26v1.73c1-1.32,2.2-1.99,3.63-1.99.73,0,1.38.2,1.97.59.58.4,1,.91,1.24,1.55.24.64.36,1.58.36,2.82v4.97h-1.24v-4.61c0-1.13-.05-1.89-.16-2.3s-.26-.74-.47-1.02c-.21-.28-.48-.49-.81-.64-.33-.15-.73-.22-1.19-.22s-.93.12-1.38.35-.83.55-1.15.97c-.32.41-.53.84-.64,1.28-.11.44-.16,1.32-.16,2.64v3.55h-1.26V3.94Z"/><path class="cls-1" d="M32.53,12.08c0,.33.04.52.13.58s.3.09.66.09h.75v1.06c-.51.09-.91.13-1.2.13-.55,0-.95-.13-1.2-.4-.26-.27-.38-.69-.38-1.26v-7.29h-1.71v-1.06h1.71V.2h1.26v3.74h1.97v1.06h-1.97v7.09Z"/><path class="cls-1" d="M44.5,10.48l1.06.55c-1.04,1.94-2.59,2.92-4.63,2.92-1.46,0-2.66-.5-3.61-1.5-.95-1-1.42-2.21-1.42-3.62s.48-2.62,1.43-3.63c.95-1.01,2.13-1.51,3.53-1.51s2.58.47,3.54,1.4c.95.94,1.45,2.21,1.48,3.83h-8.71c.04,1.17.4,2.1,1.1,2.82s1.55,1.07,2.54,1.07c1.64,0,2.87-.77,3.68-2.31ZM44.5,7.83c-.17-.92-.6-1.65-1.28-2.17s-1.46-.78-2.35-.78c-1.82,0-3.01.98-3.57,2.95h7.2Z"/><path class="cls-1" d="M47.73,3.94h1.28v1.4c.34-.57.67-.99.99-1.26.32-.27.68-.4,1.07-.4s.79.11,1.19.33l-.66,1.06c-.18-.11-.37-.16-.57-.16-.38,0-.73.19-1.07.58-.33.39-.58.89-.74,1.5-.16.61-.24,1.73-.24,3.34v3.28h-1.28V3.94Z"/><path class="cls-1" d="M57.44,7.96h4.88v1.28h-4.88v-1.28Z"/><path class="cls-1" d="M81.24,2.95l-1.02.78c-1.22-1.51-2.78-2.26-4.68-2.26-1.56,0-2.89.55-4.02,1.64-1.12,1.09-1.69,2.43-1.69,4.02s.55,2.91,1.65,3.97c1.1,1.06,2.47,1.59,4.13,1.59,1.85,0,3.38-.72,4.61-2.15l1.02.78c-.64.85-1.46,1.5-2.44,1.94-.98.44-2.07.67-3.26.67-2.08,0-3.78-.66-5.1-1.97-1.32-1.31-1.99-2.97-1.99-4.97,0-1.24.31-2.38.92-3.43.61-1.05,1.46-1.87,2.55-2.47,1.09-.59,2.26-.89,3.51-.89s2.37.24,3.37.71c1,.47,1.81,1.15,2.44,2.04Z"/><path class="cls-1" d="M83.2,8.84c0-1.42.49-2.64,1.47-3.64.98-1.01,2.17-1.51,3.57-1.51s2.59.5,3.57,1.51c.98,1.01,1.47,2.22,1.47,3.63s-.48,2.61-1.45,3.62-2.16,1.5-3.58,1.5-2.62-.5-3.59-1.5-1.46-2.2-1.46-3.6ZM92.02,8.86c0-1.07-.37-2-1.12-2.78s-1.63-1.18-2.66-1.18-1.91.39-2.65,1.18-1.11,1.72-1.11,2.8.36,2,1.08,2.75c.72.75,1.61,1.13,2.67,1.13s1.96-.38,2.7-1.14c.73-.76,1.1-1.68,1.1-2.76Z"/><path class="cls-1" d="M95.41.2h1.24v13.41h-1.24V.2Z"/><path class="cls-1" d="M99.06.2h1.24v13.41h-1.24V.2Z"/><path class="cls-1" d="M111.03,10.48l1.06.55c-1.04,1.94-2.59,2.92-4.63,2.92-1.46,0-2.66-.5-3.61-1.5-.95-1-1.42-2.21-1.42-3.62s.48-2.62,1.43-3.63c.95-1.01,2.13-1.51,3.53-1.51s2.58.47,3.54,1.4c.95.94,1.45,2.21,1.48,3.83h-8.71c.04,1.17.4,2.1,1.1,2.82s1.55,1.07,2.54,1.07c1.64,0,2.87-.77,3.68-2.31ZM111.03,7.83c-.17-.92-.6-1.65-1.28-2.17s-1.46-.78-2.35-.78c-1.82,0-3.01.98-3.57,2.95h7.2Z"/><path class="cls-1" d="M123.2,3.94h1.26v7.47c0,1.32-.12,2.3-.35,2.92-.23.62-.56,1.14-1,1.55-.44.41-.97.73-1.59.95s-1.3.33-2.04.33c-2.53,0-4.19-1.01-4.99-3.02h1.35c.71,1.26,1.9,1.89,3.59,1.89.81,0,1.52-.16,2.12-.47.6-.32,1.03-.72,1.28-1.21s.37-1.26.37-2.3v-.42c-.5.62-1.09,1.08-1.77,1.38s-1.4.46-2.15.46c-1.41,0-2.58-.48-3.52-1.44-.93-.96-1.4-2.09-1.4-3.39s.5-2.51,1.49-3.48c1-.97,2.2-1.46,3.62-1.46s2.66.64,3.73,1.93v-1.68ZM123.25,8.62c0-1.06-.36-1.94-1.08-2.66-.72-.72-1.6-1.08-2.66-1.08-1.12,0-2.05.39-2.79,1.16-.74.77-1.11,1.66-1.11,2.65s.36,1.84,1.08,2.54c.72.7,1.63,1.05,2.75,1.05s2.03-.34,2.74-1.02c.71-.68,1.07-1.56,1.07-2.64Z"/><path class="cls-1" d="M135.14,10.48l1.06.55c-1.04,1.94-2.59,2.92-4.63,2.92-1.46,0-2.66-.5-3.61-1.5-.95-1-1.42-2.21-1.42-3.62s.48-2.62,1.43-3.63c.95-1.01,2.13-1.51,3.53-1.51s2.58.47,3.54,1.4c.95.94,1.45,2.21,1.48,3.83h-8.71c.04,1.17.4,2.1,1.1,2.82s1.55,1.07,2.54,1.07c1.64,0,2.87-.77,3.68-2.31ZM135.14,7.83c-.17-.92-.6-1.65-1.28-2.17s-1.46-.78-2.35-.78c-1.82,0-3.01.98-3.57,2.95h7.2Z"/><path class="cls-1" d="M143.01,13.61l1.86-13.08h.2l5.32,10.73,5.29-10.73h.2l1.88,13.08h-1.29l-1.28-9.37-4.63,9.37h-.33l-4.68-9.44-1.28,9.44h-1.26Z"/><path class="cls-1" d="M168.45,13.61h-1.26v-1.73c-1,1.32-2.21,1.99-3.63,1.99-.73,0-1.38-.2-1.97-.59-.58-.39-1-.91-1.24-1.55-.24-.64-.36-1.58-.36-2.82V3.94h1.24v4.61c0,1.13.05,1.89.15,2.3.1.4.26.74.47,1.02.21.28.48.49.81.64.33.15.73.22,1.19.22s.93-.11,1.38-.35.83-.55,1.15-.97c.31-.41.53-.84.64-1.28.11-.44.16-1.32.16-2.64v-3.55h1.26v9.68Z"/><path class="cls-1" d="M176.08,4.99l-.8.82c-.67-.64-1.32-.97-1.95-.97-.41,0-.76.13-1.04.39s-.42.58-.42.97.15.71.45.98c.3.27.81.6,1.54.98.73.38,1.28.8,1.67,1.24.38.44.57.99.57,1.63,0,.81-.28,1.5-.85,2.06-.57.56-1.26.84-2.09.84-.55,0-1.07-.12-1.58-.36-.5-.24-.93-.58-1.28-1.02l.78-.87c.64.72,1.32,1.08,2.02,1.08.5,0,.92-.16,1.28-.49.35-.33.53-.71.53-1.16s-.16-.81-.47-1.09c-.31-.29-.83-.61-1.55-.97s-1.26-.76-1.62-1.19c-.36-.43-.54-.99-.54-1.68s.25-1.27.76-1.76c.5-.49,1.17-.73,2-.73s1.69.44,2.58,1.31Z"/><path class="cls-1" d="M177.7,1.24c0-.28.1-.52.3-.73.2-.21.44-.31.73-.31s.53.1.73.3c.2.2.3.44.3.73s-.1.53-.3.73c-.2.2-.44.3-.73.3s-.53-.1-.73-.31c-.2-.21-.3-.44-.3-.71ZM178.1,3.94h1.26v9.68h-1.26V3.94Z"/><path class="cls-1" d="M191.39,5.94l-.98.62c-.85-1.13-2.02-1.69-3.5-1.69-1.17,0-2.15.37-2.93,1.12-.79.75-1.18,1.67-1.18,2.78s.39,2.05,1.17,2.84c.78.79,1.76,1.18,2.95,1.18,1.42,0,2.59-.56,3.5-1.69l.98.66c-.49.7-1.14,1.25-1.96,1.62s-1.7.56-2.65.56c-1.49,0-2.74-.49-3.74-1.48-1-.98-1.5-2.19-1.5-3.61s.51-2.64,1.52-3.65c1.01-1.01,2.32-1.52,3.91-1.52.93,0,1.8.2,2.6.6.8.4,1.41.95,1.83,1.66Z"/><path class="cls-1" d="M203.83,0l6.1,13.61h-1.4l-2.06-4.46h-5.65l-2.04,4.46h-1.46l6.18-13.61h.33ZM203.67,2.9l-2.24,4.92h4.46l-2.22-4.92Z"/><path class="cls-1" d="M216.62,4.99l-.8.82c-.67-.64-1.32-.97-1.95-.97-.41,0-.76.13-1.04.39s-.42.58-.42.97.15.71.45.98c.3.27.81.6,1.54.98.73.38,1.28.8,1.67,1.24.38.44.57.99.57,1.63,0,.81-.28,1.5-.85,2.06-.57.56-1.26.84-2.09.84-.55,0-1.07-.12-1.58-.36-.5-.24-.93-.58-1.28-1.02l.78-.87c.64.72,1.32,1.08,2.02,1.08.5,0,.92-.16,1.28-.49.35-.33.53-.71.53-1.16s-.16-.81-.47-1.09c-.31-.29-.83-.61-1.55-.97s-1.26-.76-1.62-1.19c-.36-.43-.54-.99-.54-1.68s.25-1.27.76-1.76c.5-.49,1.17-.73,2-.73s1.69.44,2.58,1.31Z"/><path class="cls-1" d="M223.69,4.99l-.8.82c-.67-.64-1.32-.97-1.95-.97-.41,0-.76.13-1.04.39s-.42.58-.42.97.15.71.45.98c.3.27.81.6,1.54.98.73.38,1.28.8,1.67,1.24.38.44.57.99.57,1.63,0,.81-.28,1.5-.85,2.06-.57.56-1.26.84-2.09.84-.55,0-1.07-.12-1.58-.36-.5-.24-.93-.58-1.28-1.02l.78-.87c.64.72,1.32,1.08,2.02,1.08.5,0,.92-.16,1.28-.49.35-.33.53-.71.53-1.16s-.16-.81-.47-1.09c-.31-.29-.83-.61-1.55-.97s-1.26-.76-1.62-1.19c-.36-.43-.54-.99-.54-1.68s.25-1.27.76-1.76c.5-.49,1.17-.73,2-.73s1.69.44,2.58,1.31Z"/><path class="cls-1" d="M225.44,8.84c0-1.42.49-2.64,1.47-3.64.98-1.01,2.17-1.51,3.57-1.51s2.59.5,3.57,1.51c.98,1.01,1.47,2.22,1.47,3.63s-.48,2.61-1.45,3.62-2.16,1.5-3.58,1.5-2.62-.5-3.59-1.5-1.46-2.2-1.46-3.6ZM234.26,8.86c0-1.07-.37-2-1.12-2.78s-1.63-1.18-2.66-1.18-1.91.39-2.65,1.18-1.11,1.72-1.11,2.8.36,2,1.08,2.75c.72.75,1.61,1.13,2.67,1.13s1.96-.38,2.7-1.14c.73-.76,1.1-1.68,1.1-2.76Z"/><path class="cls-1" d="M247.29,5.94l-.98.62c-.85-1.13-2.02-1.69-3.5-1.69-1.17,0-2.15.37-2.93,1.12-.79.75-1.18,1.67-1.18,2.78s.39,2.05,1.17,2.84c.78.79,1.76,1.18,2.95,1.18,1.42,0,2.59-.56,3.5-1.69l.98.66c-.49.7-1.14,1.25-1.96,1.62s-1.7.56-2.65.56c-1.49,0-2.74-.49-3.74-1.48-1-.98-1.5-2.19-1.5-3.61s.51-2.64,1.52-3.65c1.01-1.01,2.32-1.52,3.91-1.52.93,0,1.8.2,2.6.6.8.4,1.41.95,1.83,1.66Z"/><path class="cls-1" d="M249.04,1.24c0-.28.1-.52.3-.73.2-.21.44-.31.73-.31s.53.1.73.3c.2.2.3.44.3.73s-.1.53-.3.73c-.2.2-.44.3-.73.3s-.53-.1-.73-.31c-.2-.21-.3-.44-.3-.71ZM249.44,3.94h1.26v9.68h-1.26V3.94Z"/><path class="cls-1" d="M262.91,3.94v9.68h-1.22v-1.66c-1.11,1.32-2.37,1.99-3.79,1.99s-2.62-.51-3.6-1.52c-.98-1.01-1.47-2.22-1.47-3.63s.49-2.61,1.48-3.61c.98-1,2.16-1.5,3.54-1.5,1.58,0,2.86.67,3.84,2.02v-1.77h1.22ZM261.76,8.82c0-1.11-.37-2.04-1.11-2.8-.74-.76-1.65-1.14-2.72-1.14s-1.98.39-2.72,1.18-1.11,1.71-1.11,2.78.38,2,1.13,2.78,1.65,1.18,2.71,1.18,1.95-.38,2.71-1.13c.75-.75,1.13-1.7,1.13-2.84Z"/><path class="cls-1" d="M268.06,12.08c0,.33.04.52.13.58s.3.09.66.09h.75v1.06c-.51.09-.91.13-1.2.13-.55,0-.95-.13-1.2-.4-.26-.27-.38-.69-.38-1.26v-7.29h-1.71v-1.06h1.71V.2h1.26v3.74h1.97v1.06h-1.97v7.09Z"/><path class="cls-1" d="M271.31,1.24c0-.28.1-.52.3-.73.2-.21.44-.31.73-.31s.53.1.73.3c.2.2.3.44.3.73s-.1.53-.3.73c-.2.2-.44.3-.73.3s-.53-.1-.73-.31c-.2-.21-.3-.44-.3-.71ZM271.71,3.94h1.26v9.68h-1.26V3.94Z"/><path class="cls-1" d="M275.08,8.84c0-1.42.49-2.64,1.47-3.64.98-1.01,2.17-1.51,3.57-1.51s2.59.5,3.57,1.51c.98,1.01,1.47,2.22,1.47,3.63s-.48,2.61-1.45,3.62c-.97,1-2.16,1.5-3.58,1.5s-2.62-.5-3.59-1.5-1.46-2.2-1.46-3.6ZM283.9,8.86c0-1.07-.37-2-1.12-2.78s-1.63-1.18-2.66-1.18-1.91.39-2.65,1.18-1.11,1.72-1.11,2.8.36,2,1.08,2.75c.72.75,1.61,1.13,2.67,1.13s1.96-.38,2.7-1.14c.73-.76,1.1-1.68,1.1-2.76Z"/><path class="cls-1" d="M287.47,3.94h1.26v1.73c1-1.32,2.2-1.99,3.63-1.99.73,0,1.38.2,1.97.59.58.4,1,.91,1.24,1.55.24.64.36,1.58.36,2.82v4.97h-1.24v-4.61c0-1.13-.05-1.89-.16-2.3s-.26-.74-.47-1.02c-.21-.28-.48-.49-.81-.64-.33-.15-.73-.22-1.19-.22s-.93.12-1.38.35-.83.55-1.15.97c-.32.41-.53.84-.64,1.28-.11.44-.16,1.32-.16,2.64v3.55h-1.26V3.94Z"/></svg>