<?xml version="1.0" encoding="UTF-8"?><svg id="_圖層_1" xmlns="http://www.w3.org/2000/svg" viewBox="0 0 92.64 92.62"><defs><style>.cls-1{fill:#fff;stroke-width:0px;}</style></defs><path class="cls-1" d="M92.1,25.13c-.15-1.8-.34-3.58-.74-5.33-1.48-6.4-4.85-11.55-10.38-15.18-4.23-2.77-8.99-3.91-13.96-4.27C63.11.07,59.2.01,55.29,0c-6.25,0-12.51-.02-18.76.01-4.46.02-8.93.04-13.37.6-4.15.52-8.1,1.72-11.62,4.05C5.31,8.78,1.98,14.75.76,21.97.23,25.05.14,28.19.09,31.3,0,37.44.02,43.58,0,49.72c0,.23.02.46.03.69-.05,5.16-.02,10.32.25,15.48.16,2.98.56,5.92,1.44,8.78,1.96,6.41,5.87,11.25,11.79,14.39,4.16,2.21,8.71,3,13.36,3.26,2.23.12,4.47.24,6.71.25,9.75.04,19.5.15,29.24-.11,1.66-.04,3.33-.09,4.98-.27,2.88-.32,5.73-.85,8.46-1.9,2.93-1.12,5.59-2.64,7.85-4.83.77-.67,1.47-1.41,2.13-2.19,3.85-4.57,5.43-10,5.93-15.81.3-3.55.43-7.12.39-10.67-.1-10.55.41-21.1-.48-31.64ZM84.12,58.92c-.04,2.91-.1,5.83-.42,8.73-.4,3.6-1.41,7-3.65,9.93-1.57,1.75-3.29,3.31-5.47,4.29-1.67.75-3.4,1.26-5.2,1.56-3.07.51-6.16.54-9.26.61-8.8.22-17.59.09-26.39.07-2.88,0-5.77-.1-8.64-.4-3.01-.31-5.92-1.04-8.56-2.54-.93-.53-1.72-1.29-2.52-2.02-2.74-2.5-4.11-5.72-4.79-9.27-.62-3.19-.61-6.43-.73-9.66-.15-3.98-.06-7.96-.13-11.94,0-3.38,0-6.76.03-10.15.03-2.87.18-5.74.15-8.61-.02-2.27.22-4.53.6-6.73.45-2.54,1.33-4.98,2.86-7.14.92-1.3,1.96-2.46,3.26-3.39,2.21-1.59,4.69-2.54,7.35-3.06,3.15-.61,6.34-.63,9.53-.72,7.85-.22,15.7-.1,23.55-.09,3.84,0,7.68.06,11.51.41,3.07.28,6.05.99,8.71,2.59,3.73,2.24,6.03,5.57,7.11,9.76.61,2.36.79,4.77.92,7.2.24,4.7.21,9.39.22,14.09.01,5.49.03,10.98-.03,16.47Z"/><path class="cls-1" d="M69.84,42.96c-.85-6.07-3.65-11.09-8.35-14.98-5.3-4.39-11.44-6.13-18.29-5.29-4.87.6-9.14,2.56-12.77,5.84-4.91,4.44-7.55,9.99-7.92,16.61-.08,1.32-.01,2.62.18,3.93.02.28.01.56.06.83.95,5.67,3.51,10.46,7.84,14.27,4.12,3.62,8.94,5.59,14.4,5.9,4.45.26,8.65-.73,12.59-2.81,3.05-1.61,5.53-3.87,7.65-6.57.08-.09.16-.17.23-.26,3.76-5.24,5.29-11.05,4.4-17.47ZM49.08,61.38c-5.15.89-9.65-.48-13.47-4.04-2.04-1.9-3.36-4.25-4.15-6.91-.11-.39-.35-.74-.31-1.17h0c-.07-.96-.27-1.92-.27-2.89,0-2.61.6-5.08,1.85-7.37,2.56-4.69,6.51-7.37,11.82-7.97,5.02-.56,9.33,1.05,12.82,4.64,3.23,3.33,4.59,7.41,4.22,12.02-.23,2.85-1.25,5.46-2.99,7.76-.08.11-.15.23-.22.35-2.45,2.94-5.49,4.92-9.3,5.58Z"/><path class="cls-1" d="M70.99,16.03c3.13,0,5.67,2.51,5.62,5.56-.06,3.14-2.51,5.56-5.62,5.56-3.12,0-5.6-2.46-5.6-5.56,0-3.36,2.9-5.74,5.6-5.56Z"/></svg>