<?xml version="1.0" encoding="UTF-8"?><svg id="_圖層_1" xmlns="http://www.w3.org/2000/svg" xmlns:xlink="http://www.w3.org/1999/xlink" viewBox="0 0 37.65 37"><defs><style>.cls-1{clip-path:url(#clippath);}.cls-2{fill:none;}.cls-2,.cls-3,.cls-4,.cls-5{stroke-width:0px;}.cls-3{fill:#5aa7dc;}.cls-4{fill:#fff;}.cls-5{fill:#001220;}</style><clipPath id="clippath"><ellipse class="cls-2" cx="18.71" cy="18.58" rx="18.61" ry="18.29"/></clipPath></defs><g class="cls-1"><rect class="cls-5" width="37.65" height="37"/><path class="cls-4" d="M18.78,15.65l-3.2,5.72h1.39l.75-1.39h2.08l.25,1.39h1.37l-1.16-5.72h-1.48ZM19.58,18.82h-1.24l.92-1.67.32,1.67Z"/><path class="cls-4" d="M15.42,17.41h0c.09-.51,0-.94-.25-1.23-.3-.35-.82-.53-1.55-.53h-2.54l-1.03,5.72h1.32l.39-2.15h.95l.92,2.15h1.41l-1-2.3c.75-.26,1.24-.84,1.38-1.65ZM14.07,17.47h0c-.08.47-.39.69-.95.69h-1.16l.23-1.29h1.21c.31,0,.51.06.61.18.08.09.1.23.07.42Z"/><path class="cls-4" d="M10,17.49c.1-.53,0-.99-.27-1.31-.31-.36-.81-.54-1.51-.54h-2.62l-1.03,5.72h1.31l.36-1.98h1.35c1.3,0,2.2-.7,2.41-1.88h0ZM7.64,18.21h-1.2l.24-1.35h1.24c.32,0,.53.07.64.19.09.1.11.26.08.47h0c-.08.46-.41.69-1.01.69Z"/><path class="cls-3" d="M32.54,16.39c-.46-.54-1.18-.84-2.04-.84-1.75,0-3.24,1.23-3.55,2.92h0c-.15.83.03,1.59.5,2.13.46.54,1.19.84,2.04.84s1.68-.3,2.33-.85c.64-.54,1.07-1.28,1.21-2.08h0c.15-.83-.03-1.59-.49-2.13ZM29.02,17.25c.37-.3.83-.47,1.31-.47s.85.16,1.1.45c.26.31.36.74.27,1.24h0c-.18,1.02-1.03,1.75-2.03,1.75-.46,0-.86-.16-1.11-.46-.27-.31-.36-.74-.27-1.25h0c.09-.52.34-.95.73-1.27Z"/><polygon class="cls-3" points="25.8 15.65 23.73 19.84 22.86 15.65 21.45 15.65 22.62 21.36 24.36 21.36 27.22 15.65 25.8 15.65"/></g></svg>