<?xml version="1.0" encoding="UTF-8"?><svg id="_圖層_1" xmlns="http://www.w3.org/2000/svg" viewBox="0 0 39.25 25.5"><defs><style>.cls-1{fill:#211261;}.cls-1,.cls-2,.cls-3{stroke-width:0px;}.cls-2{fill:#f478c4;}.cls-3{fill:#00b2e3;}</style></defs><path class="cls-2" d="M9.48,19.87c-.15.02-.29-.05-.36-.17L.04,2.98c-.06-.11-.06-.26.02-.39.07-.13.2-.21.34-.23l3.63-.47c.15-.02.29.05.36.17l5.09,9.37L14.57.74c.1-.21.34-.32.54-.25.2.07.28.3.18.5l-5.45,11.45c-.07.14-.21.24-.36.26-.15.02-.29-.05-.36-.17L3.78,2.71l-2.74.36,8.43,15.53L17.91.87l-.92.12-7.15,15.03c-.07.14-.21.24-.36.26-.15.02-.29-.05-.36-.17L2.77,4.42c-.1-.18-.02-.43.18-.55.2-.12.44-.08.54.11l6,11.04L16.38.5c.07-.14.21-.24.36-.26L18.56,0c.14-.02.27.04.34.14.07.11.08.25.02.38l-9.08,19.08c-.07.14-.21.24-.36.26"/><path class="cls-1" d="M15.88,12.48c-.45.04-.8,0-1.05-.11-.23-.12-.3-.28-.2-.49l1.05-2.2,1.6-.13-1.05,2.2,1.6-.13,1.4-2.93-1.6.13c-.45.04-.8,0-1.05-.11-.23-.12-.3-.28-.2-.49l1.05-2.2c.09-.2.33-.38.7-.55.39-.17.8-.27,1.26-.31l1.6-.13c.43-.03.77,0,1.02.13.25.12.32.28.23.48l-.7,1.47-1.6.13.7-1.47-1.6.13-1.05,2.2,1.6-.13c.43-.03.77,0,1.02.13.25.12.32.28.23.48l-1.4,2.93c-.1.21-.34.39-.73.56-.38.16-.79.26-1.22.3l-1.6.13Z"/><polygon class="cls-1" points="20.17 12.14 23.67 4.81 25.27 4.68 21.77 12.01 20.17 12.14"/><path class="cls-1" d="M22.86,11.92l3.15-6.59c.09-.2.33-.38.7-.55.39-.17.8-.27,1.25-.31l1.6-.13c.43-.03.77,0,1.02.13.25.12.32.28.23.48l-3.15,6.59-1.6.13,3.15-6.59-1.6.13-3.15,6.59-1.6.13Z"/><path class="cls-1" d="M30.36,11.33c-.45.04-.8,0-1.05-.11-.23-.12-.3-.28-.2-.49l2.8-5.86c.09-.2.33-.38.7-.55.39-.17.8-.27,1.26-.31l1.6-.13c.43-.03.77,0,1.02.13.25.12.32.28.23.48l-3.2.25-2.8,5.86,1.6-.13,1.75-3.66,1.6-.13-1.75,3.66c-.1.21-.34.39-.73.56-.38.16-.79.26-1.22.3l-1.6.13Z"/><path class="cls-1" d="M26.14.32c.03.25.07.5.1.75.03.25.07.49.1.74,0,.02.01.02.03.03.44.02.87.04,1.31.06.06,0,.12,0,.2,0-.06.03-.11.06-.16.09-.44.23-.87.46-1.31.69-.03.01-.03.03-.03.05.03.27.07.55.1.82.02.21.05.43.07.64,0,0,0,0,0,.01-.36-.32-.72-.64-1.08-.96-.49.27-.98.53-1.47.8.03-.04.05-.08.07-.12.21-.37.42-.74.63-1.1.02-.03.04-.07.06-.1,0-.02,0-.02,0-.03-.18-.16-.35-.33-.53-.49l-.55-.51s0,0-.01-.02c.04,0,.08,0,.11,0,.38.01.75.03,1.13.04.13,0,.26,0,.4.01.02,0,.03,0,.04-.02.13-.22.26-.44.38-.67.14-.24.27-.48.41-.72,0,0,0,0,.01-.02"/><polygon class="cls-1" points="35.56 6.67 32.86 6.83 33.96 8.32 35.56 6.67"/><path class="cls-1" d="M39.17,3.63c-.05.1-.11.18-.19.25-.08.07-.17.12-.27.16-.1.04-.21.05-.33.05s-.22-.03-.32-.08c-.1-.05-.18-.11-.25-.19-.07-.08-.12-.16-.16-.27-.04-.1-.05-.21-.05-.32s.03-.21.08-.31c.05-.1.11-.18.19-.25.08-.07.17-.12.27-.16.1-.04.21-.05.33-.05s.22.03.32.08c.1.05.18.11.25.19.07.08.12.16.16.27.04.1.05.21.05.32s-.03.21-.08.31ZM39.13,3.03c-.03-.09-.08-.17-.14-.24-.06-.07-.14-.13-.23-.17s-.19-.07-.29-.07-.21,0-.3.04c-.09.04-.17.08-.25.15-.07.06-.13.14-.17.23-.04.09-.07.18-.07.28s0,.2.04.29c.03.09.08.17.14.24.06.07.14.13.23.17.09.04.19.07.29.07s.21,0,.3-.04c.09-.03.18-.08.25-.15.07-.06.13-.14.17-.23.04-.09.07-.18.07-.28s0-.2-.04-.29ZM38.74,3.27s-.1.06-.16.07l.24.35h-.15s-.23-.33-.23-.33h-.22s-.02.3-.02.3h-.12s.04-.83.04-.83l.38.02c.09,0,.17.03.23.08.06.05.08.11.08.19,0,.07-.03.12-.07.16ZM38.64,3s-.08-.04-.14-.04h-.25s-.01.28-.01.28h.24c.06.01.11,0,.15-.02.04-.02.06-.06.06-.11s-.01-.08-.05-.11Z"/><path class="cls-3" d="M14.2,13.67s0,0-.01,0c-.04,0-.07,0-.11.01-.16.03-.3.14-.37.28,0,.02-.02.03-.02.05l-.38.79h0s-.01.05-.01.07c0,.1.08.18.18.18,0,0,0,0,0,0,0,0,0,0,0,0l13.9-2.43-13.19,1.05Z"/><rect class="cls-1" x="3.1" y="22.37" width=".4" height="3.13"/><rect class="cls-1" x="4.03" y="22.63" width=".4" height="2.6"/><rect class="cls-1" x="36.68" y="23.02" width=".4" height="1.82"/><rect class="cls-1" x="37.6" y="23.19" width=".4" height="1.48"/><rect class="cls-1" x="38.53" y="23.43" width=".4" height="1.01"/><rect class="cls-1" x="34.83" y="22.63" width=".4" height="2.6"/><rect class="cls-1" x="35.75" y="22.37" width=".4" height="3.13"/><rect class="cls-1" x="2.18" y="23.02" width=".4" height="1.82"/><rect class="cls-1" x="1.25" y="23.19" width=".4" height="1.48"/><rect class="cls-1" x=".33" y="23.43" width=".4" height="1.01"/><path class="cls-1" d="M5.53,25v-1.99h2.07v.34h-1.6v.44h.93v.34h-.93v.49h1.62v.37h-2.09Z"/><path class="cls-1" d="M14.21,25v-1.99h2.07v.34h-1.6v.44h.93v.34h-.93v.49h1.62v.37h-2.09Z"/><path class="cls-1" d="M8.18,25l.96-1.02-.98-.97h.62l.65.67.61-.67h.54l-.88.91,1.09,1.07h-.64l-.74-.77-.68.77h-.55Z"/><path class="cls-1" d="M11.3,25v-1.99h1.73c.16,0,.28.03.35.09.07.06.11.16.11.29v.44c0,.13-.04.23-.11.29s-.19.09-.35.09h-1.27v.77h-.46ZM12.82,23.36h-1.06v.53h1.06c.08,0,.14-.01.17-.03.03-.02.04-.06.04-.12v-.21c0-.06-.02-.1-.04-.12-.03-.02-.09-.03-.17-.03Z"/><path class="cls-1" d="M17.28,25v-1.99h1.73c.16,0,.28.03.35.09.07.06.11.16.11.29v.47c0,.13-.04.23-.11.29-.07.06-.19.09-.35.09h-.26l.93.75h-.68l-.81-.75h-.45v.75h-.46ZM18.8,23.36h-1.06v.55h1.06c.08,0,.14-.01.17-.03.03-.02.04-.06.04-.12v-.24c0-.06-.02-.1-.04-.12-.03-.02-.09-.03-.17-.03Z"/><path class="cls-1" d="M20.63,25v-1.99h.47v1.99h-.47Z"/><path class="cls-1" d="M22.14,25v-1.99h2.07v.34h-1.6v.44h.93v.34h-.93v.49h1.62v.37h-2.09Z"/><path class="cls-1" d="M25.09,25v-1.99h.32l1.42,1.17s.09.08.13.11.07.07.1.11c0-.11-.01-.19-.02-.24,0-.05,0-.08,0-.11v-1.04h.42v1.99h-.32l-1.48-1.23s-.07-.06-.09-.08-.05-.05-.07-.08c0,.06.01.12.01.17,0,.05,0,.1,0,.14v1.07h-.42Z"/><path class="cls-1" d="M30.19,23.37h-1.27v1.26h1.27v-.43l.47.1v.23c0,.18-.03.31-.1.37-.07.07-.2.1-.4.1h-1.21c-.2,0-.33-.03-.4-.1-.07-.07-.1-.19-.1-.37v-1.05c0-.18.03-.3.1-.37s.2-.1.4-.1h1.21c.2,0,.33.03.4.1.07.07.1.19.1.37v.19l-.47.07v-.38Z"/><path class="cls-1" d="M31.64,25v-1.99h2.07v.34h-1.6v.44h.93v.34h-.93v.49h1.62v.37h-2.09Z"/></svg>