<?xml version="1.0" encoding="UTF-8"?><svg id="_圖層_1" xmlns="http://www.w3.org/2000/svg" xmlns:xlink="http://www.w3.org/1999/xlink" viewBox="0 0 43.5 42.75"><defs><style>.cls-1{filter:url(#drop-shadow-1);}.cls-2{fill:#231b00;}.cls-2,.cls-3{stroke-width:0px;}.cls-4{fill:#e30682;stroke:#e30682;stroke-miterlimit:10;stroke-width:0px;}.cls-3{fill:#ffef00;}</style><filter id="drop-shadow-1" filterUnits="userSpaceOnUse"><feOffset dx="4.09" dy="4.09"/><feGaussianBlur result="blur" stdDeviation="2.46"/><feFlood flood-color="#231815" flood-opacity=".34"/><feComposite in2="blur" operator="in"/><feComposite in="SourceGraphic"/></filter></defs><g class="cls-1"><path class="cls-3" d="M43.5,21.37c0,11.8-9.74,21.37-21.75,21.37S0,33.18,0,21.37,9.74,0,21.75,0s21.75,9.57,21.75,21.37Z"/><path class="cls-2" d="M38.96,15.01c0-3.17-2.62-5.74-5.84-5.74-2.27,0-4.23,1.27-5.2,3.13v-3.13h-2.57v5.11h0c0,2.13-1.75,3.85-3.92,3.85s-3.92-1.72-3.92-3.85h0v-5.11h-2.57v5.11h0c0,2.13-1.76,3.85-3.92,3.85s-3.92-1.72-3.92-3.85v-5.11h-2.57v5.11c0,3.52,2.9,6.37,6.49,6.37,2.13,0,4.02-1.01,5.2-2.57,1.18,1.56,3.07,2.57,5.2,2.57,2.78,0,5.15-1.72,6.08-4.14.71,2.39,2.95,4.14,5.61,4.14v-2.52c-1.36,0-2.52-.81-3.02-1.96h8.72c.09-.41.14-.83.14-1.26ZM30.1,13.75c.5-1.15,1.66-1.96,3.02-1.96s2.52.81,3.02,1.96h-6.03Z"/><path class="cls-2" d="M33.11,21.99c-2.27,0-4.23,1.27-5.2,3.12v-3.12h-2.57v5.11h0c0,2.13-1.75,3.85-3.92,3.85s-3.92-1.72-3.92-3.85h0v-5.11h-2.57v5.11h0c0,2.13-1.76,3.85-3.92,3.85s-3.92-1.72-3.92-3.85v-5.11h-2.57v5.11c0,3.52,2.9,6.37,6.49,6.37,2.13,0,4.02-1.01,5.2-2.57,1.18,1.56,3.07,2.57,5.2,2.57,2.78,0,5.15-1.72,6.08-4.14.71,2.39,2.95,4.14,5.61,4.14,1.22,0,2.34-.36,3.28-.99v.99h2.56v-5.74c0-3.17-2.62-5.74-5.84-5.74ZM33.11,30.96c-1.81,0-3.28-1.44-3.28-3.22s1.47-3.22,3.28-3.22,3.28,1.44,3.28,3.22-1.47,3.22-3.28,3.22Z"/><path class="cls-4" d="M33.11,30.96c-1.81,0-3.28-1.44-3.28-3.22s1.47-3.22,3.28-3.22,3.28,1.44,3.28,3.22-1.47,3.22-3.28,3.22Z"/></g></svg>