<?xml version="1.0" encoding="UTF-8"?><svg id="_圖層_1" xmlns="http://www.w3.org/2000/svg" xmlns:xlink="http://www.w3.org/1999/xlink" viewBox="0 0 157.88 81.2"><defs><style>.cls-1{clip-path:url(#clippath);}.cls-2{fill:none;}.cls-2,.cls-3,.cls-4,.cls-5{stroke-width:0px;}.cls-3{fill:#e4278e;}.cls-4{fill:#fff000;}.cls-5{fill:#231f20;}</style><clipPath id="clippath"><path class="cls-2" d="M76.1,29.47s-7.3,15.37-1.15,20.76l-.64,6.15-14.99,24.73s-24.21.38-25.37-.38S0,31.26,0,31.26L19.09,4.48,52.91,0l12.81,6.28,6.66,15.25,3.72,7.94Z"/></clipPath></defs><polygon class="cls-3" points="150.44 31.33 131.7 34.99 131.43 36.16 150.44 31.33"/><polygon class="cls-3" points="152.3 25.18 133.08 28.95 132.8 30.14 152.3 25.18"/><polygon class="cls-3" points="154.16 19.04 134.46 22.9 134.18 24.12 154.16 19.04"/><polygon class="cls-3" points="156.02 12.9 135.83 16.85 135.55 18.11 156.02 12.9"/><polygon class="cls-3" points="157.88 6.76 137.21 10.8 136.92 12.09 157.88 6.76"/><g class="cls-1"><path class="cls-4" d="M76.84,39.74c0,15.25-12.37,27.62-27.62,27.62s-27.62-12.37-27.62-27.62,12.37-27.62,27.62-27.62,27.62,12.37,27.62,27.62Z"/><path class="cls-5" d="M71.08,31.52c0-4.1-3.32-7.42-7.42-7.42-2.88,0-5.38,1.64-6.61,4.04v-4.04h-3.26v6.61h0c0,2.75-2.23,4.98-4.98,4.98s-4.98-2.23-4.98-4.98h0v-6.61h-3.26v6.61h0c0,2.75-2.23,4.98-4.98,4.98s-4.98-2.23-4.98-4.98v-6.61h-3.26v6.61c0,4.55,3.69,8.24,8.24,8.24,2.7,0,5.11-1.3,6.61-3.32,1.5,2.01,3.9,3.32,6.61,3.32,3.53,0,6.55-2.22,7.72-5.35.9,3.09,3.75,5.35,7.13,5.35v-3.26c-1.72,0-3.2-1.04-3.83-2.53h11.07c.12-.52.18-1.07.18-1.63ZM59.82,29.89c.63-1.49,2.11-2.53,3.83-2.53s3.2,1.04,3.83,2.53h-7.66Z"/><path class="cls-5" d="M63.66,40.53c-2.88,0-5.38,1.64-6.61,4.04v-4.04h-3.26v6.61h0c0,2.75-2.23,4.98-4.98,4.98s-4.98-2.23-4.98-4.98h0v-6.61h-3.26v6.61h0c0,2.75-2.23,4.98-4.98,4.98s-4.98-2.23-4.98-4.98v-6.61h-3.26v6.61c0,4.55,3.69,8.24,8.24,8.24,2.7,0,5.11-1.3,6.61-3.32,1.5,2.01,3.9,3.32,6.61,3.32,3.53,0,6.55-2.22,7.72-5.35.9,3.09,3.75,5.35,7.13,5.35,1.54,0,2.98-.47,4.16-1.28v1.28h3.26v-7.42c0-4.1-3.32-7.42-7.42-7.42ZM63.66,52.12c-2.3,0-4.16-1.86-4.16-4.16s1.86-4.16,4.16-4.16,4.16,1.86,4.16,4.16-1.86,4.16-4.16,4.16Z"/><path class="cls-3" d="M63.66,52.12c-2.3,0-4.16-1.86-4.16-4.16s1.86-4.16,4.16-4.16,4.16,1.86,4.16,4.16-1.86,4.16-4.16,4.16Z"/></g><path class="cls-3" d="M84.65,49.92c-.21.07-.5.16-.87.25-3.06.75-5.51.24-7.35-1.54-1.84-1.78-2.43-4.27-1.76-7.48.67-3.23,2.49-6.31,5.46-9.24,2.97-2.93,6.11-4.81,9.4-5.62l-1.43,6.91c-1.36.33-2.69,1.15-3.99,2.44-1.3,1.29-2.08,2.56-2.34,3.82-.27,1.3.03,2.35.91,3.15.87.8,1.99,1.03,3.34.69l-1.36,6.61Z"/><path class="cls-3" d="M98.8,46.1l-6.35,1.56c-1.5.37-2.74.12-3.75-.73-1-.86-1.35-2.05-1.03-3.57l3.52-17.08,7.28-1.79-3.29,15.94c-.17.81.15,1.11.96.91l3.83-.94-1.18,5.71Z"/><path class="cls-4" d="M84.99,48.29c-.21.07-.5.16-.87.25-3.06.75-5.51.24-7.35-1.54-1.84-1.78-2.43-4.27-1.76-7.48.67-3.23,2.49-6.31,5.46-9.24,2.97-2.93,6.11-4.81,9.4-5.62l-1.43,6.91c-1.36.33-2.69,1.15-3.99,2.44-1.3,1.29-2.08,2.56-2.34,3.82-.27,1.3.03,2.35.91,3.15.87.8,1.99,1.03,3.34.69l-1.36,6.61Z"/><path class="cls-4" d="M99.14,44.47l-6.35,1.56c-1.5.37-2.74.12-3.75-.73-1-.86-1.35-2.05-1.03-3.57l3.52-17.08,7.28-1.79-3.29,15.94c-.17.81.15,1.11.96.91l3.83-.94-1.18,5.71Z"/><path class="cls-3" d="M119.62,33.49c-.49,2.37-1.76,4.56-3.8,6.58-2.04,2.02-4.38,3.35-7,4-2.6.64-4.59.37-5.98-.8-1.38-1.18-1.83-2.95-1.34-5.32l3.08-14.91,7.28-1.79-3.23,15.68c-.08.38.01.69.27.92.26.23.66.28,1.21.15.46-.11.89-.37,1.3-.77.41-.4.65-.79.73-1.17l3.23-15.68,7.31-1.8-3.08,14.91Z"/><path class="cls-3" d="M139.63,29.96c-.34,1.63-1.3,3.28-2.9,4.94-1.6,1.66-3.36,2.72-5.29,3.2l-11.66,2.87,4.72-22.86,11.73-2.89c1.77-.44,3.16-.11,4.15.98.92,1.03,1.23,2.31.91,3.85-.21,1.01-.6,1.94-1.17,2.8-.57.86-1.45,1.75-2.64,2.66.91.27,1.55.8,1.93,1.6.38.8.46,1.75.23,2.84ZM132.42,30.98c.08-.4,0-.72-.23-.96-.23-.24-.55-.31-.94-.22l-2.17.54-.64,3.09,2.17-.54c.41-.1.81-.34,1.18-.72.37-.38.58-.77.62-1.19ZM133.84,22.47c-.02-.33-.12-.6-.31-.8-.19-.2-.42-.26-.7-.19l-2.04.5-.59,2.85,2.1-.52c.39-.1.72-.32.99-.66.27-.34.45-.74.54-1.18Z"/><path class="cls-4" d="M119.96,31.86c-.49,2.37-1.76,4.56-3.8,6.58-2.04,2.02-4.38,3.35-7,4-2.6.64-4.59.37-5.98-.8-1.38-1.18-1.83-2.95-1.34-5.32l3.08-14.91,7.28-1.79-3.23,15.68c-.08.38.01.69.27.92.26.23.66.28,1.21.15.46-.11.89-.37,1.3-.77.41-.4.65-.79.73-1.17l3.23-15.68,7.31-1.8-3.08,14.91Z"/><path class="cls-4" d="M139.97,28.33c-.34,1.63-1.3,3.28-2.9,4.94-1.6,1.66-3.36,2.72-5.29,3.2l-11.66,2.87,4.72-22.86,11.73-2.89c1.77-.44,3.16-.11,4.15.98.92,1.03,1.23,2.31.91,3.85-.21,1.01-.6,1.94-1.17,2.8-.57.86-1.45,1.75-2.64,2.66.91.27,1.55.8,1.93,1.6.38.8.46,1.75.23,2.84ZM132.75,29.35c.08-.4,0-.72-.23-.96-.23-.24-.55-.31-.94-.22l-2.17.54-.64,3.09,2.17-.54c.41-.1.81-.34,1.18-.72.37-.38.58-.77.62-1.19ZM134.18,20.84c-.02-.33-.12-.6-.31-.8-.19-.2-.42-.26-.7-.19l-2.04.5-.59,2.85,2.1-.52c.39-.1.72-.32.99-.66.27-.34.45-.74.54-1.18Z"/><path class="cls-5" d="M85.35,46.53c-.21.07-.5.16-.87.25-3.06.75-5.51.24-7.35-1.54-1.84-1.78-2.43-4.27-1.76-7.48.67-3.23,2.49-6.31,5.46-9.24,2.97-2.93,6.11-4.81,9.4-5.62l-1.43,6.91c-1.36.33-2.69,1.15-3.99,2.44-1.3,1.29-2.08,2.56-2.34,3.82-.27,1.3.03,2.35.91,3.15.87.8,1.99,1.03,3.34.69l-1.36,6.61Z"/><path class="cls-5" d="M99.5,42.7l-6.35,1.56c-1.5.37-2.74.12-3.75-.73-1-.86-1.35-2.05-1.03-3.57l3.52-17.08,7.28-1.79-3.29,15.94c-.17.81.15,1.11.96.91l3.83-.94-1.18,5.71Z"/><path class="cls-5" d="M120.33,30.03c-.49,2.37-1.76,4.56-3.8,6.58-2.04,2.02-4.38,3.35-7,4-2.6.64-4.59.37-5.98-.8-1.38-1.18-1.83-2.95-1.34-5.32l3.08-14.91,7.28-1.79-3.23,15.68c-.08.38.01.69.27.92.26.23.66.28,1.21.15.46-.11.89-.37,1.3-.77.41-.4.65-.79.73-1.17l3.23-15.68,7.31-1.8-3.08,14.91Z"/><path class="cls-5" d="M140.34,26.53c-.34,1.63-1.3,3.28-2.9,4.94-1.6,1.66-3.36,2.72-5.29,3.2l-11.66,2.87,4.72-22.86,11.73-2.89c1.77-.44,3.16-.11,4.15.98.92,1.03,1.23,2.31.91,3.85-.21,1.01-.6,1.94-1.17,2.8-.57.86-1.45,1.75-2.64,2.66.91.27,1.55.8,1.93,1.6.38.8.46,1.75.23,2.84ZM133.12,27.54c.08-.4,0-.72-.23-.96-.23-.24-.55-.31-.94-.22l-2.17.54-.64,3.09,2.17-.54c.41-.1.81-.34,1.18-.72.37-.38.58-.77.62-1.19ZM134.55,19.03c-.02-.33-.12-.6-.31-.8-.19-.2-.42-.26-.7-.19l-2.04.5-.59,2.85,2.1-.52c.39-.1.72-.32.99-.66.27-.34.45-.74.54-1.18Z"/><path class="cls-5" d="M135.02,13.5l-4.9.76-.47,3.12s-1.21,10.1-1.19,10.33-.64,1.85-.64,1.85l7.49-.93s1.08-8.06,1.06-8.51-1.34-6.62-1.34-6.62Z"/><path class="cls-3" d="M85.84,44.17c-.21.07-.5.16-.87.25-3.06.75-5.51.24-7.35-1.54-1.84-1.78-2.43-4.27-1.76-7.48.67-3.23,2.49-6.31,5.46-9.24,2.97-2.93,6.11-4.81,9.4-5.62l-1.43,6.91c-1.36.33-2.69,1.15-3.99,2.44-1.3,1.29-2.08,2.56-2.34,3.82-.27,1.3.03,2.35.91,3.15.87.8,1.99,1.03,3.34.69l-1.36,6.61Z"/><path class="cls-3" d="M99.99,40.34l-6.35,1.56c-1.5.37-2.74.12-3.75-.73-1-.86-1.35-2.05-1.03-3.57l3.52-17.08,7.28-1.79-3.29,15.94c-.17.81.15,1.11.96.91l3.83-.94-1.18,5.71Z"/><path class="cls-3" d="M120.81,27.67c-.49,2.37-1.76,4.56-3.8,6.58-2.04,2.02-4.38,3.35-7,4-2.6.64-4.59.37-5.98-.8-1.38-1.18-1.83-2.95-1.34-5.32l3.08-14.91,7.28-1.79-3.23,15.68c-.08.38.01.69.27.92.26.23.66.28,1.21.15.46-.11.89-.37,1.3-.77.41-.4.65-.79.73-1.17l3.23-15.68,7.31-1.8-3.08,14.91Z"/><path class="cls-3" d="M140.83,24.16c-.34,1.63-1.3,3.28-2.9,4.94-1.6,1.66-3.36,2.72-5.29,3.2l-11.66,2.87,4.72-22.86,11.73-2.89c1.77-.44,3.16-.11,4.15.98.92,1.03,1.23,2.31.91,3.85-.21,1.01-.6,1.94-1.17,2.8-.57.86-1.45,1.75-2.64,2.66.91.27,1.55.8,1.93,1.6.38.8.46,1.75.23,2.84ZM133.61,25.18c.08-.4,0-.72-.23-.96-.23-.24-.55-.31-.94-.22l-2.17.54-.64,3.09,2.17-.54c.41-.1.81-.34,1.18-.72.37-.38.58-.77.62-1.19ZM135.04,16.67c-.02-.33-.12-.6-.31-.8-.19-.2-.42-.26-.7-.19l-2.04.5-.59,2.85,2.1-.52c.39-.1.72-.32.99-.66.27-.34.45-.74.54-1.18Z"/></svg>