<?xml version="1.0" encoding="UTF-8"?><svg id="_圖層_1" xmlns="http://www.w3.org/2000/svg" viewBox="0 0 92.64 67.79"><defs><style>.cls-1{fill:#fff;stroke-width:0px;}</style></defs><path class="cls-1" d="M45.77,0c2.15,0,4.3-.02,6.45,0,3.23.03,6.46.08,9.69.15,1.83.04,3.67.12,5.5.23,3.24.18,6.47.43,9.67.94,2.17.34,4.33.77,6.4,1.55.49.18.96.4,1.43.63.79.39,1.48.91,2.1,1.54,2.06,2.1,3.35,4.62,4.09,7.44.46,1.77.75,3.56.95,5.38.37,3.28.52,6.57.56,9.86.04,3.79.07,7.58.02,11.37-.03,2.58-.15,5.15-.3,7.73-.14,2.4-.41,4.8-.91,7.16-.39,1.81-.93,3.57-1.8,5.22-.76,1.45-1.76,2.73-2.93,3.88-.6.59-1.32,1.02-2.07,1.38-1.47.7-3.02,1.13-4.6,1.48-2.01.44-4.04.73-6.09.96-2.89.32-5.78.53-8.68.62-3.27.1-6.53.2-9.8.24-4.15.05-8.31.06-12.46.05-3.24,0-6.48-.03-9.73-.1-2.72-.06-5.44-.16-8.16-.29-2.65-.13-5.3-.35-7.93-.7-2.4-.32-4.79-.72-7.1-1.47-1.01-.32-1.98-.71-2.89-1.26-.53-.32-1-.7-1.43-1.14-2.21-2.23-3.54-4.92-4.27-7.95-.42-1.75-.69-3.52-.88-5.31-.39-3.77-.51-7.56-.55-11.35-.02-1.76-.05-3.52-.04-5.27.02-3.35.05-6.69.22-10.03.14-2.57.33-5.14.77-7.69.38-2.21.93-4.38,1.95-6.4.78-1.55,1.82-2.91,3.06-4.12.8-.78,1.77-1.27,2.79-1.69,1.63-.66,3.34-1.08,5.07-1.4,2.44-.46,4.91-.74,7.39-.95,2.8-.24,5.61-.4,8.42-.46,2.88-.07,5.75-.13,8.63-.16,2.49-.03,4.97,0,7.46,0,0,0,0-.02,0-.03ZM34.32,33.89c0,5.09,0,10.18,0,15.27,0,.21,0,.42.04.62.08.48.44.72.91.59.18-.05.36-.15.53-.25,3.12-1.8,6.24-3.6,9.37-5.41,5.76-3.32,11.52-6.65,17.27-9.98.17-.1.34-.2.48-.33.33-.31.34-.71,0-1.03-.13-.12-.29-.22-.44-.31-8.91-5.15-17.83-10.29-26.74-15.44-.12-.07-.25-.15-.38-.19-.51-.18-.92.06-1,.59-.03.2-.03.42-.03.62,0,5.08,0,10.16,0,15.24Z"/></svg>