<?xml version="1.0" encoding="UTF-8"?><svg id="_圖層_1" xmlns="http://www.w3.org/2000/svg" viewBox="0 0 42.62 16.25"><defs><style>.cls-1,.cls-2{fill:#d7166e;stroke-width:0px;}.cls-2{fill-rule:evenodd;}</style></defs><path class="cls-1" d="M5.89,1.03c0,.39.32.71.73.71s.73-.32.73-.71-.32-.71-.73-.71-.73.32-.73.71"/><path class="cls-1" d="M0,5.31c0-1.07.55-1.77.79-2.02.55-.57,1.28-.83,2-.83.9,0,1.76.27,2.11.45-.07.23-.4.8-.88.8s-.69-.08-1.23-.08c-.22,0-.43.04-.62.13-.19.09-.9.49-.91,1.55,0,1.1.65,1.46.83,1.55.18.09.38.13.6.13.72,0,.96-.08,1.32-.08.27,0,.67.23.88.8-.22.12-.96.45-2.27.45-.28,0-1.15,0-1.92-.83-.06-.07-.72-.69-.72-2.02"/><path class="cls-1" d="M17.96,2.8c-.46-.48-.99-.33-1.14-.19-.1.1-.2.24-.28.43l-1.46,3.55-1.48-3.55c-.08-.19-.18-.33-.29-.43-.13-.12-.6-.33-1.16.2l2.28,5.26-.74,1.77c-.06.14-.16.49-.04.86.06.17.18.41.44.51l.31.12s1.19-3,1.3-3.25l2.27-5.3"/><path class="cls-2" d="M22.24,3.69l-1.15,2.85-1.21-3.46c-.15-.4-.42-.6-.81-.6-.33,0-.6.23-.68.32,0,0,1.45,3.92,1.95,5.26.08.03.26.09.57.09.82.02,1.09-.82,1.1-.85l.98-2.47s1.18,3.01,1.27,3.23c.16.06.3.09.58.09.71,0,1-.69,1.06-.85l1.74-4.51c-.08-.1-.33-.32-.69-.32-.52,0-.68.43-.77.64l-1.26,3.43-1.48-3.65s-.13-.09-.34-.09c-.46,0-.62.37-.73.56-.05.1-.1.21-.15.33"/><path class="cls-1" d="M7.12,2.47c-.62,0-1.12.49-1.12,1.11v4.48h1.23V2.47h-.11"/><path class="cls-1" d="M35.72,0c-.62,0-1.12.49-1.12,1.11v6.95h1.23V0h-.11"/><path class="cls-1" d="M40.15,4.91l2.2-2.1c-.63-.59-1.33-.28-1.55-.05l-1.65,1.56c-.06.06-.14.13-.5.15V0h-.11c-.62,0-1.12.49-1.12,1.11v6.95s1.23,0,1.23,0v-2.64l.27.02c.09,0,.16.05.22.12l1.8,2.14c.1.12.24.23.4.32.16.08.71.31,1.29-.19l-2.47-2.92"/><path class="cls-1" d="M10.57,6.88c-.16-.01-.29-.07-.39-.18-.1-.1-.16-.23-.16-.38v-2.64h1.48v-1.12h-1.48V.71h-.11c-.62,0-1.12.5-1.12,1.11v4.65c0,.87.72,1.58,1.61,1.58h1.23v-.07c0-.83-.74-1.08-1.06-1.11"/><path class="cls-1" d="M32.68,6.05c-.08-.03-.18.01-.21.1-.31.76-.9.81-1.12.86-.23.04-.54.05-.94.05-.36,0-.62-.07-.77-.22-.15-.15-.22-.32-.22-.48s.07-.32.2-.45c.13-.13.34-.2.63-.2h2.93v-.92c0-.9-.44-1.44-.64-1.65-.55-.57-1.28-.69-1.64-.68-.49,0-1.19.03-2.46.45.23.7.72.79.96.79.6,0,.76-.11,1.35-.11.97.06,1.21.83,1.2,1.11h-1.8c-.31,0-.58.05-.83.14-.25.09-1.17.49-1.17,1.59s.94,1.51,1.2,1.6c.57.22,1.79.11,2.1.07.32-.04,1.12-.15,1.45-.55.1-.12.18-.28.23-.46.15-.68-.2-.94-.42-1.03"/><path class="cls-1" d="M25.99,11.13h-.94v-.72h-.11c-.41,0-.74.32-.76.72h-.98v.38h2.83v-.38h-.04"/><path class="cls-1" d="M33.24,13.08h2.49s0-.38,0-.38h-2.49v-1.42h2.09s0-.38,0-.38h-4.95s0,.03,0,.03v.35s2.09,0,2.09,0v1.42h-2.49s0,.03,0,.03v.35s2.46,0,2.46,0c-.05.3-.4,1.57-2.49,2.81h-.02v.35l.05-.02s2.45-.78,3.11-2.67c.87,1.82,2.57,2.67,2.59,2.68l.05.02v-.93h-.02c-1.64-.84-2.27-1.84-2.47-2.24"/><path class="cls-1" d="M22.02,11.13h-1.44v-.72h-.11c-.41,0-.74.32-.76.72h-1.16v-.72h-.11c-.41,0-.74.32-.76.72h-1.36v.38h1.36v.42h.87v-.42h1.16v.42h.87v-.42h1.44v-.38"/><polyline class="cls-1" points="21.74 15.74 19.52 15.74 19.52 14.97 21.13 14.97 21.13 14.59 19.52 14.59 19.52 14 21.13 14 21.13 13.61 17.21 13.61 17.21 14 18.82 14 18.82 14.59 17.21 14.59 17.21 14.97 18.82 14.97 18.82 15.74 16.56 15.74 16.56 16.12 21.78 16.12 21.78 15.74 21.74 15.74"/><path class="cls-1" d="M21.98,12.94c-1.86-.21-2.56-1.04-2.56-1.05h-.01s-.47-.01-.47-.01h-.01s-1.18,1.21-2.58,1.47h-.03v.31h.04s1.82-.24,2.81-1.14c1.42,1.12,2.79,1.13,2.8,1.13h.04v-.71h-.03"/><path class="cls-1" d="M26.1,13.08v-.38h-.57v-.43c0-.33-.27-.59-.6-.59h-.09v1.02h-.43v-.43c0-.33-.27-.59-.6-.59h-.09v1.02h-.58v.38h1.17v.44h-1.02v.38h.6c-.02.16-.13.98-.77,1.84h0v.39l.06-.04s.86-.62,1.14-1.94v2.03h.66v-1.97c.18,1.41.89,1.67.93,1.68l.05.02v-.7h-.01c-.58-.47-.67-1.17-.68-1.31h.7v-.38h-.99v-.44h1.14"/><path class="cls-1" d="M27.05,12.3v-.96c.9-.06,1.86-.23,1.88-.23h.07s-.53-.62-.53-.62l-.03.02c-.66.38-2.03.64-2.04.64h-.05v5.06h.7v-3.51h.58v3.5h.7v-3.5h.6v-.38h-1.89"/><path class="cls-1" d="M42.41,11.86l-.37.07-1.17.24v-.95h0v-.81h-.09c-.34,0-.61.27-.61.6v.06h0v1.25l-.61.13v-.73h0v-.78h-.11c-.32,0-.6.25-.6.56v.18h0v.91l-.51.11v.33s.2-.04.51-.1v1.68h0v.35h0c.03,1,.83,1.17,1.05,1.17h2.54v-.38h-2.03c-.82,0-.85-.73-.85-.73v-2.23c.2-.04.4-.08.61-.12v2.08h.7v-2.23c.48-.1.85-.17.88-.18v1.62h0v.82h.09c.34,0,.61-.27.61-.6v-.13h0v-2.19h-.05M38.07,15.24v-2.81h.51v-.38s-.04,0-.04,0h-.47s0-.63,0-.63h0v-.81h-.09c-.34,0-.61.27-.61.6v.06h0v.79h-.62s0,.38,0,.38h.62v2.97c-.34.06-.57.06-.57.06h-.04s0,.78,0,.78h.05c1.19-.26,1.73-.87,1.76-.89h.01v-.29l-.05.02c-.15.06-.3.11-.44.15Z"/></svg>